<?xml version="1.0" standalone="no"?><!DOCTYPE svg PUBLIC "-//W3C//DTD SVG 1.1//EN" "http://www.w3.org/Graphics/SVG/1.1/DTD/svg11.dtd"><svg xmlns:xlink="http://www.w3.org/1999/xlink" version="1.1" style="font-family:'lucida grande', 'lucida sans unicode', arial, helvetica, sans-serif;font-size:12px;" xmlns="http://www.w3.org/2000/svg" width="600" height="400"><desc>Created with Highcharts 4.2.7</desc><defs><clipPath id="highcharts-70"><rect x="1" y="1" width="578" height="293"></rect></clipPath></defs><rect x="10" y="48" width="580" height="295" fill="#ffffff"></rect><rect x="10" y="48" width="580" height="295" stroke="#026FC1" stroke-width="2" fill="none"></rect><g class="highcharts-series-group"><g class="highcharts-series highcharts-series-0" transform="translate(10,48) scale(1 1)"><path fill="#50B432" d="M 289.97291146390853 10.000002758604495 A 133 133 0 0 1 422.72770896104555 151.50619033128115 L 290 143 A 0 0 0 0 0 290 143 Z" stroke="#FFFFFF" stroke-width="1" stroke-linejoin="round" transform="translate(0,0)"></path><path fill="#ED561B" d="M 422.719136408283 151.63891376502607 A 133 133 0 0 1 422.72770896104555 151.50619033128115 L 290 143 A 0 0 0 0 0 290 143 Z" stroke="#FFFFFF" stroke-width="1" stroke-linejoin="round" transform="translate(0,0)"></path><path fill="#DDDF00" d="M 422.719136408283 151.63891376502607 A 133 133 0 0 1 231.28838438495967 262.33962540527665 L 290 143 A 0 0 0 0 0 290 143 Z" stroke="#FFFFFF" stroke-width="1" stroke-linejoin="round" transform="translate(0,0)"></path><path fill="#24CBE5" d="M 231.16907413524973 262.2808541296392 A 133 133 0 0 1 184.5726597980002 224.08067549010553 L 290 143 A 0 0 0 0 0 290 143 Z" stroke="#FFFFFF" stroke-width="1" stroke-linejoin="round" transform="translate(0,0)"></path><path fill="#64b4e5" d="M 184.49163184968927 223.97520762714038 A 133 133 0 0 1 159.5311684785297 117.1759026987931 L 290 143 A 0 0 0 0 0 290 143 Z" stroke="#FFFFFF" stroke-width="1" stroke-linejoin="round" transform="translate(0,0)"></path><path fill="#a37de9" d="M 159.55705780593723 117.04544680106403 A 133 133 0 0 1 159.5311684785297 117.1759026987931 L 290 143 A 0 0 0 0 0 290 143 Z" stroke="#FFFFFF" stroke-width="1" stroke-linejoin="round" transform="translate(0,0)"></path><path fill="#e76de0" d="M 159.55705780593723 117.04544680106403 A 133 133 0 0 1 289.81526566823646 10.000128296202206 L 290 143 A 0 0 0 0 0 290 143 Z" stroke="#FFFFFF" stroke-width="1" stroke-linejoin="round" transform="translate(0,0)"></path></g><g class="highcharts-markers highcharts-series-0" transform="translate(10,48) scale(1 1)"></g></g><text x="300" text-anchor="middle" class="highcharts-title" style="color:#000000;font-size:10px;font-family:'arial', sans-serif;fill:#000000;width:536px;" y="17"><tspan>Percent of Songs by Genre</tspan></text><text x="300" text-anchor="middle" class="highcharts-subtitle" style="color:#000000;font-size:10px;font-family:'arial', sans-serif;fill:#000000;width:536px;" y="33"><tspan>Sourced from 96 songs</tspan></text><g class="highcharts-data-labels highcharts-series-0" transform="translate(10,48) scale(1 1)" opacity="1"><path fill="none" d="M 413.9678438497472 31.57445477027199 C 408.9678438497472 31.57445477027199 403.1289312681645 37.04319318645496 395.1004264684883 44.56270850870654 L 387.07192166881214 52.08222383095813" stroke="#50B432" stroke-width="1"></path><path fill="none" d="M 457.65100448789235 153.66071006451335 C 452.65100448789235 153.66071006451335 444.6681331019836 153.13748503067222 433.6916849463589 152.41805060914064 L 422.71523679073425 151.69861618760905" stroke="#ED561B" stroke-width="1"></path><path fill="none" d="M 376.5 284.1621408168635 C 371.5 284.1621408168635 367.5 277.233937586588 362 267.70765814495917 L 356.5 258.1813787033303" stroke="#DDDF00" stroke-width="1"></path><path fill="none" d="M 181.59389468132576 269.0007038981261 C 186.59389468132576 269.0007038981261 191.66904095463494 262.8166202712242 198.64736708043503 254.3135052842341 L 205.62569320623513 245.810390297244" stroke="#24CBE5" stroke-width="1"></path><path fill="none" d="M 126.25805237779463 180.01343087460285 C 131.25805237779463 180.01343087460285 139.04906821201328 178.1968207703279 149.76171498406396 175.69898187694977 L 160.47436175611463 173.20114298357166" stroke="#64b4e5" stroke-width="1"></path><path fill="none" d="M 125.13199929427344 111.20027751137107 C 130.13199929427344 111.20027751137107 137.97828153749927 112.76100008750011 148.76691962193482 114.90699362967752 L 159.55555770637037 117.05298717185492" stroke="#a37de9" stroke-width="1"></path><path fill="none" d="M 181.59389468132588 16.999296101873828 C 186.59389468132588 16.999296101873828 191.66904095463502 23.183379728775726 198.64736708043512 31.686494715765836 L 205.6256932062352 40.189609702755945" stroke="#e76de0" stroke-width="1"></path><g style="cursor:pointer;" transform="translate(419,22)"><text x="5" style="font-size:10px;font-weight:bold;font-family:'arial', sans-serif;color:#000;text-shadow:none;fill:#000;text-rendering:geometricprecision;" y="15"><tspan>Rock: 26.0%</tspan></text></g><g style="cursor:pointer;" transform="translate(463,144)"><text x="5" style="font-size:10px;font-weight:bold;font-family:'arial', sans-serif;color:#000;text-shadow:none;fill:#000;text-rendering:geometricprecision;" y="15"><tspan>R&amp;B: 0.0%</tspan></text></g><g style="cursor:pointer;" transform="translate(382,274)"><text x="5" style="font-size:10px;font-weight:bold;font-family:'arial', sans-serif;color:#000;text-shadow:none;fill:#000;text-rendering:geometricprecision;" y="15"><tspan>Indie: 31.3%</tspan></text></g><g style="cursor:pointer;" transform="translate(108,259)"><text x="5" style="font-size:10px;font-weight:bold;font-family:'arial', sans-serif;color:#000;text-shadow:none;fill:#000;text-rendering:geometricprecision;" y="15"><tspan>Psych: 7.3%</tspan></text></g><g style="cursor:pointer;" transform="translate(58,170)"><text x="5" style="font-size:10px;font-weight:bold;font-family:'arial', sans-serif;color:#000;text-shadow:none;fill:#000;text-rendering:geometricprecision;" y="15"><tspan>Rap: 13.5%</tspan></text></g><g style="cursor:pointer;" transform="translate(43,101)"><text x="5" style="font-size:10px;font-weight:bold;font-family:'arial', sans-serif;color:#000;text-shadow:none;fill:#000;text-rendering:geometricprecision;" y="15"><tspan>Hip Hop: 0.0%</tspan></text></g><g style="cursor:pointer;" transform="translate(113,7)"><text x="5" style="font-size:10px;font-weight:bold;font-family:'arial', sans-serif;color:#000;text-shadow:none;fill:#000;text-rendering:geometricprecision;" y="15"><tspan>Pop: 21.9%</tspan></text></g></g><g class="highcharts-legend" transform="translate(57,355)"><g><g><g class="highcharts-legend-item" transform="translate(8,3)"><text x="21" style="color:#333;font-size:9pt;font-weight:normal;cursor:pointer;font-family:'lucida grande','lucida sans unicode',arial,helvetica,sans-serif;text-transform:none;fill:#333;" text-anchor="start" y="15">Rock</text><rect x="0" y="4" width="16" height="12" fill="#50B432"></rect></g><g class="highcharts-legend-item" transform="translate(77.21875,3)"><text x="21" y="15" style="color:#333;font-size:9pt;font-weight:normal;cursor:pointer;font-family:'lucida grande','lucida sans unicode',arial,helvetica,sans-serif;text-transform:none;fill:#333;" text-anchor="start">R&amp;B</text><rect x="0" y="4" width="16" height="12" fill="#ED561B"></rect></g><g class="highcharts-legend-item" transform="translate(141.078125,3)"><text x="21" y="15" style="color:#333;font-size:9pt;font-weight:normal;cursor:pointer;font-family:'lucida grande','lucida sans unicode',arial,helvetica,sans-serif;text-transform:none;fill:#333;" text-anchor="start">Indie</text><rect x="0" y="4" width="16" height="12" fill="#DDDF00"></rect></g><g class="highcharts-legend-item" transform="translate(210.703125,3)"><text x="21" y="15" style="color:#333;font-size:9pt;font-weight:normal;cursor:pointer;font-family:'lucida grande','lucida sans unicode',arial,helvetica,sans-serif;text-transform:none;fill:#333;" text-anchor="start">Psych</text><rect x="0" y="4" width="16" height="12" fill="#24CBE5"></rect></g><g class="highcharts-legend-item" transform="translate(284.328125,3)"><text x="21" y="15" style="color:#333;font-size:9pt;font-weight:normal;cursor:pointer;font-family:'lucida grande','lucida sans unicode',arial,helvetica,sans-serif;text-transform:none;fill:#333;" text-anchor="start">Rap</text><rect x="0" y="4" width="16" height="12" fill="#64b4e5"></rect></g><g class="highcharts-legend-item" transform="translate(347.109375,3)"><text x="21" y="15" style="color:#333;font-size:9pt;font-weight:normal;cursor:pointer;font-family:'lucida grande','lucida sans unicode',arial,helvetica,sans-serif;text-transform:none;fill:#333;" text-anchor="start"><tspan>Hip Hop</tspan></text><rect x="0" y="4" width="16" height="12" fill="#a37de9"></rect></g><g class="highcharts-legend-item" transform="translate(435.5,3)"><text x="21" y="15" style="color:#333;font-size:9pt;font-weight:normal;cursor:pointer;font-family:'lucida grande','lucida sans unicode',arial,helvetica,sans-serif;text-transform:none;fill:#333;" text-anchor="start">Pop</text><rect x="0" y="4" width="16" height="12" fill="#e76de0"></rect></g></g></g></g><g class="highcharts-tooltip" display="none" style="cursor:default;padding:0;pointer-events:none;white-space:nowrap;" transform="translate(0,0)"><path fill="none" d="M 3.5 0.5 L 13.5 0.5 C 16.5 0.5 16.5 0.5 16.5 3.5 L 16.5 13.5 C 16.5 16.5 16.5 16.5 13.5 16.5 L 3.5 16.5 C 0.5 16.5 0.5 16.5 0.5 13.5 L 0.5 3.5 C 0.5 0.5 0.5 0.5 3.5 0.5"  stroke="black" stroke-opacity="0.049999999999999996" stroke-width="5" transform="translate(1, 1)"></path><path fill="none" d="M 3.5 0.5 L 13.5 0.5 C 16.5 0.5 16.5 0.5 16.5 3.5 L 16.5 13.5 C 16.5 16.5 16.5 16.5 13.5 16.5 L 3.5 16.5 C 0.5 16.5 0.5 16.5 0.5 13.5 L 0.5 3.5 C 0.5 0.5 0.5 0.5 3.5 0.5"  stroke="black" stroke-opacity="0.09999999999999999" stroke-width="3" transform="translate(1, 1)"></path><path fill="none" d="M 3.5 0.5 L 13.5 0.5 C 16.5 0.5 16.5 0.5 16.5 3.5 L 16.5 13.5 C 16.5 16.5 16.5 16.5 13.5 16.5 L 3.5 16.5 C 0.5 16.5 0.5 16.5 0.5 13.5 L 0.5 3.5 C 0.5 0.5 0.5 0.5 3.5 0.5"  stroke="black" stroke-opacity="0.15" stroke-width="1" transform="translate(1, 1)"></path><path fill="rgb(249, 249, 249)" fill-opacity=" .85" d="M 3.5 0.5 L 13.5 0.5 C 16.5 0.5 16.5 0.5 16.5 3.5 L 16.5 13.5 C 16.5 16.5 16.5 16.5 13.5 16.5 L 3.5 16.5 C 0.5 16.5 0.5 16.5 0.5 13.5 L 0.5 3.5 C 0.5 0.5 0.5 0.5 3.5 0.5"></path><text x="8" style="font-size:12px;color:#000000;fill:#000000;" y="20"></text></g><text x="590" text-anchor="end" style="cursor:pointer;color:#909090;font-size:9px;fill:#909090;" y="395">meta-chart.com</text></svg>